<?xml version="1.0" encoding="utf-8"?>
<!-- Generator: Adobe Illustrator 23.0.3, SVG Export Plug-In . SVG Version: 6.00 Build 0)  -->
<svg version="1.1" xmlns="http://www.w3.org/2000/svg" xmlns:xlink="http://www.w3.org/1999/xlink" x="0px" y="0px"
	 viewBox="0 0 100 100" style="enable-background:new 0 0 100 100;" xml:space="preserve">
<style type="text/css">
	.st0{display:none;}
	.st1{display:inline;fill:#727171;}
	.st2{display:inline;}
	.st3{fill:#cccccc;}
	.st4{fill:none;stroke:#cccccc;stroke-width:4.9094;stroke-miterlimit:10;}
	.st5{display:inline;fill:none;stroke:#FFFFFF;stroke-width:4.3779;stroke-miterlimit:10;}
	.st6{display:inline;fill:#cccccc;}
</style>
<g id="Layer_1" class="st0">
	<rect class="st1" width="100" height="100"/>
</g>
<g id="friends" class="st0">
	<g class="st2">
		<g>
			<g>
				<path class="st3" d="M28.87,24.27c6.88,0,12.47,5.59,12.47,12.47s-5.59,12.47-12.47,12.47S16.4,43.62,16.4,36.74
					S22,24.27,28.87,24.27 M28.87,19.36c-9.6,0-17.38,7.78-17.38,17.38s7.78,17.38,17.38,17.38s17.38-7.78,17.38-17.38
					S38.47,19.36,28.87,19.36L28.87,19.36z"/>
			</g>
			<path class="st4" d="M7.88,81.69c0-18.78,14.47-24.18,21-24.18s21,5.4,21,24.18"/>
		</g>
		<g>
			<g>
				<path class="st3" d="M70.87,24.27c6.88,0,12.47,5.59,12.47,12.47s-5.59,12.47-12.47,12.47S58.4,43.62,58.4,36.74
					S63.99,24.27,70.87,24.27 M70.87,19.36c-9.6,0-17.38,7.78-17.38,17.38s7.78,17.38,17.38,17.38s17.38-7.78,17.38-17.38
					S80.47,19.36,70.87,19.36L70.87,19.36z"/>
			</g>
			<path class="st4" d="M91.87,81.69c0-18.78-14.47-24.18-21-24.18s-21,5.4-21,24.18"/>
		</g>
	</g>
</g>
<g id="suit" class="st0">
	<path class="st5" d="M69.78,21.56h-7.91c-2.58,3-7.28,5.02-12.66,5.02s-10.07-2.02-12.66-5.02h-7.91L7.23,40.73l12.13,15.01
		l9.3-7.22v30.18h41.12V48.51l9.3,8.32l12.13-16.11L69.78,21.56z"/>
</g>
<g id="arrow" class="st0">
	<path class="st6" d="M17.1,60.48V30.05c0-7.22,5.85-13.07,13.07-13.07h30.43L17.1,60.48z"/>
	<polygon class="st6" points="73.12,16.98 17.1,73.48 17.1,82.92 82.58,16.87 	"/>
</g>
<g id="back" class="st0">
	<g class="st2">
		<path class="st3" d="M68.77,21.83L43.9,45.82l-3.04,2.93l3,2.96l25.06,24.71H53.19L26.27,49.23l26.92-27.4H68.77 M78.96,17.72
			H51.47L20.49,49.24l30.98,31.3h27.49l-32.2-31.75L78.96,17.72L78.96,17.72z"/>
	</g>
</g>
<g id="Layer_6">
	<g>
		<path class="st3" d="M47.34,22.65c11.54,0,20.93,9.39,20.93,20.93s-9.39,20.93-20.93,20.93s-20.93-9.39-20.93-20.93
			S35.8,22.65,47.34,22.65 M47.34,18.63c-13.78,0-24.95,11.17-24.95,24.95s11.17,24.95,24.95,24.95s24.95-11.17,24.95-24.95
			S61.12,18.63,47.34,18.63L47.34,18.63z"/>
	</g>
	<g>
		<path class="st3" d="M68.19,61.3l11.12,11.12l-3.34,3.34L64.85,64.64L68.19,61.3 M68.19,55.62l-9.02,9.02l16.81,16.81L85,72.42
			L68.19,55.62L68.19,55.62z"/>
	</g>
</g>
<g id="Layer_7" class="st0">
	<g class="st2">
		<g>
			<path class="st3" d="M49.8,36.28c7.02,0,12.73,5.71,12.73,12.73S56.82,61.74,49.8,61.74s-12.73-5.71-12.73-12.73
				S42.78,36.28,49.8,36.28 M49.8,29.84c-10.59,0-19.17,8.58-19.17,19.17s8.58,19.17,19.17,19.17s19.17-8.58,19.17-19.17
				S60.39,29.84,49.8,29.84L49.8,29.84z"/>
		</g>
	</g>
</g>
<g id="Layer_8" class="st0">
	<circle class="st6" cx="13.68" cy="49.74" r="4.75"/>
	<circle class="st6" cx="87.5" cy="49.74" r="4.75"/>
	<circle class="st6" cx="50.59" cy="49.74" r="4.75"/>
</g>
<g id="Layer_9" class="st0">
	<path class="st6" d="M93.95,72.65H6.05c-2.76,0-4.99-2.23-4.99-4.99V36.58c0-2.76,2.23-4.99,4.99-4.99h87.91
		c2.76,0,4.99,2.23,4.99,4.99v31.08C98.94,70.41,96.71,72.65,93.95,72.65z"/>
	<path class="st6" d="M90.33,34.65l2.52-11.72c0.02-0.1,0.03-0.2,0.03-0.31c-0.12-1.29-1.68-1.93-2.67-1.03l-10.69,9.63
		c-1.01,0.91-0.5,2.58,0.85,2.78l8.6,1.57C89.59,35.68,90.19,35.28,90.33,34.65z"/>
</g>
</svg>
