<?xml version="1.0" encoding="utf-8"?>
<!-- Generator: Adobe Illustrator 23.0.3, SVG Export Plug-In . SVG Version: 6.00 Build 0)  -->
<svg version="1.1" xmlns="http://www.w3.org/2000/svg" xmlns:xlink="http://www.w3.org/1999/xlink" x="0px" y="0px"
	 viewBox="0 0 100 100" style="enable-background:new 0 0 100 100;" xml:space="preserve">
<style type="text/css">
	.st0{display:none;}
	.st1{display:inline;fill:#727171;}
	.st2{display:inline;}
	.st3{fill:#FFFFFF;}
	.st4{fill:none;stroke:#FFFFFF;stroke-width:4.9094;stroke-miterlimit:10;}
	.st5{display:inline;fill:none;stroke:#FFFFFF;stroke-width:4.3779;stroke-miterlimit:10;}
	.st6{display:inline;fill:#FFFFFF;}
	.st7{display:inline;fill:#40547E;}
	.st8{display:inline;fill:#C9BEDE;}
	.st9{display:inline;fill:#FFFFFF;stroke:#FFFFFF;stroke-width:0.7612;stroke-miterlimit:10;}
	.st10{display:inline;fill:#D981A9;}
	.st11{display:inline;fill:#D26D8B;}
	.st12{display:inline;fill:#D2C6E2;}
	.st13{fill:#F5C74A;}
	.st14{display:inline;fill:#B4708F;}
	.st15{display:inline;fill:#D16E2E;}
</style>
<g id="Layer_1" class="st0">
	<rect class="st1" width="100" height="100"/>
</g>
<g id="friends" class="st0">
	<g class="st2">
		<g>
			<g>
				<path class="st3" d="M28.87,24.27c6.88,0,12.47,5.59,12.47,12.47s-5.59,12.47-12.47,12.47S16.4,43.62,16.4,36.74
					S22,24.27,28.87,24.27 M28.87,19.36c-9.6,0-17.38,7.78-17.38,17.38s7.78,17.38,17.38,17.38s17.38-7.78,17.38-17.38
					S38.47,19.36,28.87,19.36L28.87,19.36z"/>
			</g>
			<path class="st4" d="M7.88,81.69c0-18.78,14.47-24.18,21-24.18s21,5.4,21,24.18"/>
		</g>
		<g>
			<g>
				<path class="st3" d="M70.87,24.27c6.88,0,12.47,5.59,12.47,12.47s-5.59,12.47-12.47,12.47S58.4,43.62,58.4,36.74
					S63.99,24.27,70.87,24.27 M70.87,19.36c-9.6,0-17.38,7.78-17.38,17.38s7.78,17.38,17.38,17.38s17.38-7.78,17.38-17.38
					S80.47,19.36,70.87,19.36L70.87,19.36z"/>
			</g>
			<path class="st4" d="M91.87,81.69c0-18.78-14.47-24.18-21-24.18s-21,5.4-21,24.18"/>
		</g>
	</g>
</g>
<g id="suit" class="st0">
	<path class="st5" d="M69.78,21.56h-7.91c-2.58,3-7.28,5.02-12.66,5.02s-10.07-2.02-12.66-5.02h-7.91L7.23,40.73l12.13,15.01
		l9.3-7.22v30.18h41.12V48.51l9.3,8.32l12.13-16.11L69.78,21.56z"/>
</g>
<g id="arrow" class="st0">
	<path class="st6" d="M17.1,60.48V30.05c0-7.22,5.85-13.07,13.07-13.07h30.43L17.1,60.48z"/>
	<polygon class="st6" points="73.12,16.98 17.1,73.48 17.1,82.92 82.58,16.87 	"/>
</g>
<g id="back" class="st0">
	<g class="st2">
		<path class="st3" d="M68.77,21.83L43.9,45.82l-3.04,2.93l3,2.96l25.06,24.71H53.19L26.27,49.23l26.92-27.4H68.77 M78.96,17.72
			H51.47L20.49,49.24l30.98,31.3h27.49l-32.2-31.75L78.96,17.72L78.96,17.72z"/>
	</g>
</g>
<g id="Layer_6" class="st0">
	<g class="st2">
		<path class="st3" d="M47.34,22.65c11.54,0,20.93,9.39,20.93,20.93s-9.39,20.93-20.93,20.93s-20.93-9.39-20.93-20.93
			S35.8,22.65,47.34,22.65 M47.34,18.63c-13.78,0-24.95,11.17-24.95,24.95s11.17,24.95,24.95,24.95s24.95-11.17,24.95-24.95
			S61.12,18.63,47.34,18.63L47.34,18.63z"/>
	</g>
	<g class="st2">
		<path class="st3" d="M68.19,61.3l11.12,11.12l-3.34,3.34L64.85,64.64L68.19,61.3 M68.19,55.62l-9.02,9.02l16.81,16.81L85,72.42
			L68.19,55.62L68.19,55.62z"/>
	</g>
</g>
<g id="Layer_7" class="st0">
	<g class="st2">
		<g>
			<path class="st3" d="M49.8,36.28c7.02,0,12.73,5.71,12.73,12.73S56.82,61.74,49.8,61.74s-12.73-5.71-12.73-12.73
				S42.78,36.28,49.8,36.28 M49.8,29.84c-10.59,0-19.17,8.58-19.17,19.17s8.58,19.17,19.17,19.17s19.17-8.58,19.17-19.17
				S60.39,29.84,49.8,29.84L49.8,29.84z"/>
		</g>
	</g>
</g>
<g id="Layer_8" class="st0">
	<circle class="st6" cx="13.68" cy="49.74" r="4.75"/>
	<circle class="st6" cx="87.5" cy="49.74" r="4.75"/>
	<circle class="st6" cx="50.59" cy="49.74" r="4.75"/>
</g>
<g id="Layer_9" class="st0">
	<path class="st6" d="M93.95,72.65H6.05c-2.76,0-4.99-2.23-4.99-4.99V36.58c0-2.76,2.23-4.99,4.99-4.99h87.91
		c2.76,0,4.99,2.23,4.99,4.99v31.08C98.94,70.41,96.71,72.65,93.95,72.65z"/>
	<path class="st6" d="M90.33,34.65l2.52-11.72c0.02-0.1,0.03-0.2,0.03-0.31c-0.12-1.29-1.68-1.93-2.67-1.03l-10.69,9.63
		c-1.01,0.91-0.5,2.58,0.85,2.78l8.6,1.57C89.59,35.68,90.19,35.28,90.33,34.65z"/>
</g>
<g id="Layer_10" class="st0">
	<path class="st7" d="M63.63,23.53c33.42,2.34,35.42,17.9,35.42,27.31S86.98,67.2,82.03,68.13s-12.39,1.73-18.4,1.73
		s-11.39,0-18.4-1.73c-6.51-1.6-17.01-6.38-17.01-17.3S30.2,21.19,63.63,23.53z"/>
	<path class="st7" d="M16.5,61.08c5.29-1.92,7.18,1.24,8.14,3.25s-0.15,4.36-0.8,4.91s-2.02,1.32-2.7,1.53
		c-0.68,0.21-3.19,0.58-3.79,0.62c-0.61,0.03-3.42-0.01-4.54-2.34C11.69,66.73,11.21,63.01,16.5,61.08z"/>
	<path class="st7" d="M5.4,60.01c1.51,1.51,0.41,3.17-0.31,4.13c-0.72,0.96-1.87,1.21-2.19,1.12s-0.76-0.3-1.06-0.52
		c-0.3-0.23-0.47-0.95-0.7-1.4C0.93,62.93,0.7,62,1.54,60.88C2.38,59.77,3.89,58.5,5.4,60.01z"/>
	<path class="st8" d="M52.77,54.42c0,0-5.91-17.5,8.12-19.07c14.03-1.57,12.13,16.81,12.13,16.81s-4.47,1.86-9.97,2.48
		S52.77,54.42,52.77,54.42z"/>
	<path class="st9" d="M47.88,67.99"/>
	<path class="st6" d="M47.54,68.98c0,0,3.04-11.4,5.45-12.34s16.7-0.25,18.64,2.33c2.54,3.37,1.46,10.69,1.46,10.69
		s-5.14,0.51-12.66,0.53C53.36,70.2,47.54,68.98,47.54,68.98z"/>
	<path class="st10" d="M69.1,47.76c0,4.07-1.08,7.37-6.72,7.37c-4.71,0-6.72-3.3-6.72-7.37c0-0.25,0.01-0.49,0.03-0.73
		c0.33-3.73,3.2-6.64,6.69-6.64C66.09,40.38,69.1,43.68,69.1,47.76z"/>
	<path class="st11" d="M61.83,58.92c6.15,0.34,14.22-1.97,14.22-1.97l-1.49-2.35c0,0-5.95,1.94-12.58,1.58
		c-6.63-0.37-12.33-2.95-12.33-2.95l-1.74,2.17C47.91,55.39,55.69,58.58,61.83,58.92z"/>
	<path class="st12" d="M69.85,65.28c0,0,4.11-3.77,5.4-4.58s2.7-2.24,2.7-2.24s1.86-3.67,2.83-3.6c0.97,0.07,0.93,1.88,0.93,1.88
		s2.17,0.02,3.3,0.1s2.98,0.51,2.56,2.07c-0.46,1.71-3.97,2-5.43,2.86s-6.57,6.8-6.57,6.8s-1.84-0.22-3.29-1.03
		S69.85,65.28,69.85,65.28z"/>
	<g class="st2">
		<g>
			<polygon class="st13" points="88.89,41.19 86.31,40.86 84.58,42.8 84.1,40.25 81.73,39.21 84,37.96 84.26,35.38 86.15,37.15 
				88.69,36.6 87.58,38.95 			"/>
			<polygon class="st13" points="37,47.69 35.68,46.45 33.91,46.84 34.68,45.2 33.77,43.64 35.56,43.86 36.77,42.51 37.11,44.29 
				38.77,45.02 37.18,45.89 			"/>
			<polygon class="st13" points="87.36,53.9 86.53,53.12 85.42,53.36 85.9,52.33 85.33,51.35 86.46,51.49 87.22,50.65 87.43,51.76 
				88.47,52.22 87.47,52.77 			"/>
			<polygon class="st13" points="66.79,28.57 66.09,28.17 65.36,28.52 65.53,27.73 64.97,27.15 65.77,27.06 66.15,26.35 
				66.48,27.08 67.28,27.23 66.68,27.77 			"/>
			<polygon class="st13" points="44.2,47.33 43.39,47.42 43.01,48.13 42.68,47.4 41.89,47.26 42.48,46.72 42.37,45.92 43.07,46.32 
				43.8,45.96 43.64,46.75 			"/>
			<polygon class="st13" points="56.8,27.25 56.3,26.89 55.71,27.09 55.91,26.5 55.54,26.01 56.16,26.01 56.51,25.5 56.7,26.09 
				57.29,26.28 56.79,26.64 			"/>
			<polygon class="st13" points="53.61,32.64 52.17,32.8 51.49,34.08 50.89,32.76 49.46,32.5 50.53,31.52 50.33,30.09 51.59,30.8 
				52.9,30.17 52.61,31.59 			"/>
			<polygon class="st13" points="33.53,49.22 33.13,48.74 32.52,48.8 32.84,48.28 32.6,47.71 33.2,47.86 33.66,47.45 33.7,48.07 
				34.24,48.38 33.66,48.61 			"/>
			<polygon class="st13" points="38.89,57.97 38.39,58.03 38.16,58.46 37.95,58.01 37.46,57.92 37.83,57.59 37.76,57.09 
				38.19,57.34 38.64,57.12 38.54,57.61 			"/>
			<polygon class="st13" points="41.58,36.78 40.67,36.46 39.89,37.03 39.92,36.07 39.14,35.51 40.06,35.23 40.35,34.32 40.9,35.11 
				41.86,35.1 41.28,35.87 			"/>
		</g>
	</g>
	<path class="st12" d="M58.97,66.8c0,0-4.11-3.46-5.46-4.3c-1.34-0.84-3.54-2.18-3.54-2.18s-1.62-3.08-2.63-3.01
		c-1.01,0.07-0.62,2.08-0.62,2.08s-1.58-0.54-2.76-0.45c-1.17,0.08-2.97,1.76-2.63,2.38c0.34,0.62,2.95,1.98,4.46,2.88
		c1.51,0.9,5.87,4.64,5.87,4.64s1.95,0.48,3.78,0S58.97,66.8,58.97,66.8z"/>
	
		<ellipse transform="matrix(0.2572 -0.9664 0.9664 0.2572 1.4349 98.7252)" class="st14" cx="64.94" cy="48.43" rx="3.44" ry="2.8"/>
	<path class="st15" d="M55.69,47.03c0,0-0.52-7.94,6.28-9.22c5.31-1,5.2,1.47,4.71,2.31c-0.46,0.78,0.19,2.16,0.19,2.16
		s-1.95-1.89-4.5-1.89C56.98,40.72,55.69,47.03,55.69,47.03z"/>
	<circle class="st6" cx="57.38" cy="39.16" r="1.45"/>
	<path class="st6" d="M62.38,48.28l0.1,0.38c0.38-0.5,1.38-1.89,2.53-1.98c1.15-0.09,2.12,0.74,2.12,0.74l0.02-1.01
		c0,0-0.68-1.28-2.28-0.9C63.36,45.88,62.38,48.28,62.38,48.28z"/>
</g>
<g id="Layer_11" class="st0">
	<path class="st6" d="M42.96,64.65l24.16-24.16c1.48-1.48,1.48-3.87,0-5.35l-2.97-2.97c-1.48-1.48-3.87-1.48-5.35,0L34.64,56.33
		c-1.48,1.48-1.48,3.87,0,5.35l2.97,2.97C39.09,66.13,41.48,66.13,42.96,64.65z"/>
	<path class="st6" d="M58.8,64.65L34.64,40.49c-1.48-1.48-1.48-3.87,0-5.35l2.97-2.97c1.48-1.48,3.87-1.48,5.35,0l24.16,24.16
		c1.48,1.48,1.48,3.87,0,5.35l-2.97,2.97C62.67,66.13,60.28,66.13,58.8,64.65z"/>
</g>
<g id="Layer_12" class="st0">
	<path class="st6" d="M81.13,66.85h-64.7V35.28h64.7c3.6,0,6.52,2.92,6.52,6.52v18.52C87.65,63.93,84.73,66.85,81.13,66.85z"/>
</g>
<g id="Layer_13">
	<g>
		<circle class="st3" cx="48.31" cy="74.63" r="7.3"/>
		<circle class="st3" cx="65.96" cy="67.32" r="6.57"/>
		<circle class="st3" cx="73.26" cy="49.68" r="5.84"/>
		<circle class="st3" cx="65.96" cy="32.04" r="5.11"/>
		<circle class="st3" cx="48.31" cy="24.7" r="4.38"/>
		<circle class="st3" cx="30.67" cy="32.04" r="3.65"/>
		<circle class="st3" cx="23.32" cy="49.68" r="2.92"/>
		<circle class="st3" cx="30.67" cy="67.32" r="2.19"/>
	</g>
</g>
</svg>
