<?xml version="1.0" encoding="UTF-8"?>
<svg width="28px" height="28px" viewBox="0 0 28 28" version="1.1" xmlns="http://www.w3.org/2000/svg" xmlns:xlink="http://www.w3.org/1999/xlink">
    <title>user-add-fill</title>
    <g id="playhub最终" stroke="none" stroke-width="1" fill="none" fill-rule="evenodd">
        <g id="哥白尼首页新玩家" transform="translate(-93.000000, -291.000000)">
            <g id="user-add-fill" transform="translate(93.000000, 291.000000)">
                <polygon id="路径" points="0 0 28 0 28 28 0 28"></polygon>
                <path d="M14.6666673,16.4606667 L14.6666673,25.5 L3.0000003,25.5 C2.99926678,22.6128985 4.33469045,19.8879776 6.61692002,18.1197062 C8.89914958,16.3514347 11.8712432,15.7388912 14.6666673,16.4606667 L14.6666673,16.4606667 Z M12.3333339,15 C8.46583394,15 5.33333394,11.8675 5.33333394,8 C5.33333394,4.1325 8.46583394,1 12.3333339,1 C16.2008339,1 19.3333339,4.1325 19.3333339,8 C19.3333339,11.8675 16.2008339,15 12.3333339,15 Z M19.3333339,19.6666667 L19.3333339,16.1666667 L21.6666673,16.1666667 L21.6666673,19.6666667 L25.1666673,19.6666667 L25.1666673,22 L21.6666673,22 L21.6666673,25.5 L19.3333339,25.5 L19.3333339,22 L15.8333339,22 L15.8333339,19.6666667 L19.3333339,19.6666667 Z" id="形状" fill="#FFFFFF" fill-rule="nonzero"></path>
            </g>
        </g>
    </g>
</svg>