<?xml version="1.0" encoding="utf-8"?>
<!-- Generator: Adobe Illustrator 23.0.3, SVG Export Plug-In . SVG Version: 6.00 Build 0)  -->
<svg version="1.1" xmlns="http://www.w3.org/2000/svg" xmlns:xlink="http://www.w3.org/1999/xlink" x="0px" y="0px"
	 viewBox="0 0 32 32" style="enable-background:new 0 0 32 32;" xml:space="preserve">
<style type="text/css">
	.st0{display:none;}
	.st1{display:inline;}
	.st2{fill:#FFFFFF;}
	.st3{fill:#D51819;}
	.st4{fill:none;stroke:#FFFFFF;stroke-miterlimit:10;}
	.st5{fill:#FFFFFF;stroke:#FFFFFF;stroke-miterlimit:10;}
	.st6{display:inline;fill:none;stroke:#FFFFFF;stroke-miterlimit:10;}
	.st7{fill:#79C3E6;}
	.st8{display:inline;fill:none;stroke:#E37421;stroke-width:4;stroke-miterlimit:10;}
	.st9{display:inline;fill:none;stroke:#FFFFFF;stroke-width:1.5;stroke-miterlimit:10;}
	.st10{display:inline;fill:none;stroke:#FFFFFF;stroke-width:2;stroke-miterlimit:10;}
	.st11{display:inline;fill:none;stroke:#E37421;stroke-width:3;stroke-miterlimit:10;}
</style>
<g id="Layer_1" class="st0">
	<g class="st1">
		<rect x="0.5" y="0.5" width="31" height="31"/>
		<path class="st2" d="M31,1v30H1V1H31 M32,0H0v32h32V0L32,0z"/>
	</g>
</g>
<g id="Layer_2" class="st0">
	<g class="st1">
		<path class="st3" d="M20.91,5.84c-1.98,0-3.73,0.98-4.8,2.47c-1.07-1.49-2.82-2.47-4.8-2.47c-3.26,0-5.9,2.64-5.9,5.9
			c0,2.61,1.03,5.24,4.01,8.69c3.25,3.76,6.69,5.41,6.69,5.41s3.44-1.65,6.69-5.41c2.98-3.45,4.01-6.08,4.01-8.69
			C26.81,8.48,24.16,5.84,20.91,5.84z"/>
	</g>
</g>
<g id="Layer_3" class="st0">
	<g class="st1">
		<path class="st2" d="M20.59,7.84c2.7,0,4.9,2.2,4.9,4.9c0,2.57-1.13,4.98-3.77,8.04c-2.4,2.78-4.94,4.37-5.93,4.93
			c-0.99-0.56-3.52-2.13-5.93-4.93c-2.64-3.06-3.77-5.46-3.77-8.04c0-2.7,2.2-4.9,4.9-4.9c1.58,0,3.07,0.77,3.99,2.05l0.81,1.14
			l0.81-1.14C17.52,8.6,19.01,7.84,20.59,7.84 M20.59,6.84c-1.98,0-3.73,0.98-4.8,2.47c-1.07-1.49-2.82-2.47-4.8-2.47
			c-3.26,0-5.9,2.64-5.9,5.9c0,2.61,1.03,5.24,4.01,8.69c3.25,3.76,6.69,5.41,6.69,5.41s3.44-1.65,6.69-5.41
			c2.98-3.45,4.01-6.08,4.01-8.69C26.49,9.48,23.85,6.84,20.59,6.84L20.59,6.84z"/>
	</g>
</g>
<g id="Layer_4" class="st0">
	<g class="st1">
		<g>
			<path class="st2" d="M15.79,6.55c2.5,0,4.54,2.04,4.54,4.54s-2.04,4.54-4.54,4.54s-4.54-2.04-4.54-4.54S13.29,6.55,15.79,6.55
				 M15.79,5.55c-3.06,0-5.54,2.48-5.54,5.54s2.48,5.54,5.54,5.54s5.54-2.48,5.54-5.54S18.85,5.55,15.79,5.55L15.79,5.55z"/>
		</g>
		<path class="st4" d="M8.31,24.88c0-4.13,3.35-7.48,7.48-7.48s7.48,3.35,7.48,7.48"/>
	</g>
</g>
<g id="Layer_5" class="st0">
	<g class="st1">
		<g>
			<path class="st2" d="M22.41,7.5c0.46,1.04,1.37,3.4,1.64,6.47c0.32,3.58-0.12,5.9-1.45,7.74c-0.8,1.12-2.1,1.78-3.48,1.78
				c-0.9,0-1.76-0.28-2.5-0.81c-1.19-0.86-2.09-2.37-2.37-3.12l-0.23-0.62l-0.66-0.03c-0.8-0.03-2.52-0.4-3.71-1.26
				c-1.92-1.38-2.35-4.06-0.97-5.98c0.79-1.1,3.09-3.67,7.37-3.83C19.24,7.73,21.38,7.58,22.41,7.5 M23.01,6.45
				c0,0-2.42,0.23-7.01,0.41C11.92,7.01,9.22,9.2,7.86,11.1c-1.7,2.37-1.17,5.67,1.2,7.38c1.44,1.04,3.39,1.41,4.25,1.45
				c0.31,0.81,1.28,2.54,2.72,3.58c0.93,0.67,2.01,1,3.08,1c1.64,0,3.26-0.76,4.29-2.2c1.37-1.9,1.99-4.35,1.63-8.42
				C24.65,9.45,23.01,6.45,23.01,6.45L23.01,6.45z"/>
		</g>
		<path class="st4" d="M19.91,11.06c0,0-4.76,3.78-6.4,7.19s-2.06,7.19-2.06,7.19"/>
	</g>
</g>
<g id="Layer_6" class="st0">
	<g class="st1">
		<polyline class="st4" points="21.64,24.83 15.79,24.83 9.94,24.83 		"/>
		<line class="st4" x1="15.79" y1="20.42" x2="15.79" y2="24.83"/>
		<path class="st4" d="M15.79,16.26h3.52c0,0,3.08-2.7,3.49-3.09c0.42-0.39,1.02-0.51,1.75,0.05c0.73,0.56,0.08,1.53,0.08,1.53
			l-4.83,4.35c0,0-4.01,0-4.01,0h-4.01l-4.83-4.35c0,0-0.65-0.97,0.08-1.53c0.73-0.56,1.34-0.45,1.75-0.05
			c0.42,0.39,3.49,3.09,3.49,3.09S15.79,16.26,15.79,16.26z"/>
		<path class="st4" d="M20.63,15.1c0,0,2.13-5.69,1.77-6.4C22.05,8,21.24,7.29,20.1,7.07c-1.19-0.23-4.31-0.23-4.31-0.23
			s-3.11,0-4.31,0.23C10.35,7.29,9.53,8,9.18,8.7s1.77,6.4,1.77,6.4"/>
	</g>
</g>
<g id="Layer_7" class="st0">
</g>
<g id="Layer_8" class="st0">
	<g class="st1">
		<path class="st5" d="M12.56,11.36c0,0-0.01-3.77,2.77-4.15s2.8,2.81,2.8,2.81l0.88-0.22c0,0,0.27-3.98-3.95-3.4
			c-3.29,0.45-4,3.63-4.16,5.51L12.56,11.36z"/>
		<path class="st2" d="M10.97,13.93c1.08,1.54,1.94,5.21,3.26,5.57c1.32,0.36,9.16-2.91,9.16-2.91c1.25-1.29-1.58-4.76-3.15-5.17
			C18.66,11.01,11.8,13.03,10.97,13.93z"/>
		<path class="st2" d="M13.02,21.46c-1.37-0.37-2.54-5.62-3.39-6.01c-0.85-0.39-2.01,7.34-0.83,8.74s2.18,2.15,4.08,2.15
			s10.81-2.16,10.8-4.83c0-0.85-0.11-1.89-0.57-3.22C19.43,20.04,14.27,21.8,13.02,21.46z"/>
	</g>
</g>
<g id="Layer_9" class="st0">
	<g class="st1">
		<g>
			<path class="st2" d="M25.32,6.65l-0.3,2.62L10.03,22.42l-0.48-0.48L22.7,6.95L25.32,6.65 M26.45,5.52L22.2,6L8.18,21.99l1.8,1.8
				L25.97,9.77L26.45,5.52L26.45,5.52z"/>
		</g>
		<polyline class="st4" points="16.29,21.97 13.15,18.82 10,15.68 		"/>
		<polyline class="st4" points="10.74,24.42 9.08,22.89 7.55,21.23 		"/>
	</g>
</g>
<g id="Layer_10" class="st0">
	<g class="st1">
		<g>
			<path class="st2" d="M24.94,23.57v1.54H7.15v-1.54H24.94 M25.94,22.57H6.15v3.54h19.79V22.57L25.94,22.57z"/>
		</g>
		<g>
			<path class="st2" d="M15.96,7.45l6.65,4.52H9.31L15.96,7.45 M15.96,6.24l-9.89,6.73h19.79L15.96,6.24L15.96,6.24z"/>
		</g>
		<g>
			<line class="st4" x1="14.48" y1="12.97" x2="14.48" y2="22.57"/>
			<line class="st4" x1="17.43" y1="12.97" x2="17.43" y2="22.57"/>
		</g>
		<line class="st4" x1="11.53" y1="12.97" x2="11.53" y2="22.57"/>
		<line class="st4" x1="8.58" y1="12.97" x2="8.58" y2="22.57"/>
		<g>
			<line class="st4" x1="20.39" y1="12.97" x2="20.39" y2="22.57"/>
			<line class="st4" x1="23.34" y1="12.97" x2="23.34" y2="22.57"/>
		</g>
	</g>
</g>
<g id="Layer_11" class="st0">
	<g class="st1">
		<line class="st4" x1="15.88" y1="14.24" x2="8.19" y2="14.24"/>
		<line class="st4" x1="12.2" y1="14.24" x2="12.2" y2="10.79"/>
		<circle class="st4" cx="9.8" cy="19.68" r="2.4"/>
		<circle class="st4" cx="21.58" cy="19.68" r="2.4"/>
		<path class="st4" d="M23.98,19.68h1.8c0,0,0.25-3.85-0.51-4.22c-0.75-0.38-4.79-1.13-4.79-1.13s-1.19-2.85-2.38-3.41
			c-1.19-0.56-5.6-0.22-6.54-0.13c-0.94,0.09-1.91,0.84-2.38,1.41c-0.47,0.56-1,2.03-1,2.03s-1.59,0.47-2.25,1.5
			s-0.66,3.94-0.66,3.94H7.4"/>
		<line class="st4" x1="12.2" y1="19.68" x2="19.18" y2="19.68"/>
	</g>
</g>
<g id="Layer_12" class="st0">
	<g class="st1">
		<path class="st4" d="M10.95,16.14c0-2.8,2.27-5.07,5.07-5.07s5.07,2.27,5.07,5.07s-2.27,5.07-5.07,5.07"/>
		<line class="st4" x1="16.03" y1="9.25" x2="16.03" y2="6.21"/>
		<line class="st4" x1="20.9" y1="11.27" x2="23.05" y2="9.12"/>
		<line class="st4" x1="22.92" y1="16.14" x2="25.96" y2="16.14"/>
		<line class="st4" x1="20.9" y1="21.01" x2="23.05" y2="23.17"/>
		<line class="st4" x1="16.03" y1="23.03" x2="16.03" y2="26.08"/>
		<line class="st4" x1="13.31" y1="16.14" x2="6.09" y2="16.14"/>
		<line class="st4" x1="15.06" y1="21.22" x2="7.84" y2="21.22"/>
		<line class="st4" x1="16.46" y1="18.68" x2="9.24" y2="18.68"/>
		<line class="st4" x1="11.16" y1="11.27" x2="9" y2="9.12"/>
	</g>
</g>
<g id="Layer_13" class="st0">
	<g class="st1">
		<line class="st4" x1="5.41" y1="20.07" x2="25.07" y2="20.07"/>
		<line class="st4" x1="5.54" y1="23.54" x2="25.2" y2="23.54"/>
		<polyline class="st4" points="18.63,16.42 13.24,8.54 6.29,18.7 		"/>
		<polyline class="st4" points="24.65,18.39 19.36,10.65 17.13,13.9 		"/>
	</g>
</g>
<g id="Layer_14" class="st0">
	<g class="st1">
		<circle class="st2" cx="21.72" cy="9.94" r="2.4"/>
		<circle class="st2" cx="13" cy="22.44" r="2.4"/>
		<circle class="st2" cx="23.87" cy="24.21" r="1.77"/>
		<circle class="st2" cx="24.92" cy="17.17" r="1.25"/>
		<circle class="st2" cx="7.6" cy="13.67" r="1.77"/>
		<circle class="st2" cx="12.74" cy="15.28" r="1.25"/>
		<circle class="st2" cx="14.35" cy="7.58" r="1.6"/>
	</g>
</g>
<g id="Layer_15" class="st0">
	<g class="st1">
		
			<rect x="7.13" y="7.14" transform="matrix(-1 -4.410839e-11 4.410839e-11 -1 31.8289 18.1739)" class="st4" width="17.57" height="3.89"/>
		
			<rect x="20.07" y="13.43" transform="matrix(-1 -4.423141e-11 4.423141e-11 -1 45.0026 37.867)" class="st4" width="4.85" height="11"/>
		
			<rect x="7.14" y="13.43" transform="matrix(-1 -4.416701e-11 4.416701e-11 -1 24.0803 37.867)" class="st4" width="9.8" height="11"/>
	</g>
</g>
<g id="Layer_16" class="st0">
	<polyline class="st6" points="21.62,18.85 15.68,13.6 9.75,18.85 	"/>
</g>
<g id="Layer_17" class="st0">
	<g class="st1">
		<circle class="st2" cx="9.18" cy="16.38" r="1.47"/>
		<circle class="st2" cx="16.11" cy="16.38" r="1.47"/>
		<circle class="st2" cx="23.04" cy="16.38" r="1.47"/>
	</g>
</g>
<g id="Layer_18" class="st0">
	<g class="st1">
		<g>
			<polyline class="st4" points="6.73,6.81 25.27,6.81 25.27,14.04 22.29,15.54 22.29,25.19 18.29,25.19 			"/>
			<polygon class="st4" points="19.12,6.81 19.12,14.04 22.29,15.54 22.29,25.19 6.73,25.19 6.73,6.81 			"/>
		</g>
		<line class="st4" x1="9.73" y1="16" x2="18.22" y2="16"/>
		<line class="st4" x1="14.07" y1="11.66" x2="14.07" y2="20.15"/>
	</g>
</g>
<g id="Layer_19" class="st0">
	<g class="st1">
		<g>
			<rect x="6.08" y="5.83" class="st2" width="4.72" height="4.72"/>
			
				<rect x="21.07" y="5.83" transform="matrix(-1 -4.470969e-11 4.470969e-11 -1 46.8687 16.3868)" class="st2" width="4.72" height="4.72"/>
			<rect x="13.58" y="5.83" class="st2" width="4.72" height="4.72"/>
		</g>
		<g>
			<rect x="6.08" y="20.9" class="st2" width="4.72" height="4.72"/>
			
				<rect x="21.07" y="20.9" transform="matrix(-1 4.470945e-11 -4.470945e-11 -1 46.8687 46.5222)" class="st2" width="4.72" height="4.72"/>
			<rect x="13.58" y="20.9" class="st2" width="4.72" height="4.72"/>
		</g>
		<g>
			<rect x="6.08" y="13.37" class="st2" width="4.72" height="4.72"/>
			
				<rect x="21.07" y="13.37" transform="matrix(-1 -4.470969e-11 4.470969e-11 -1 46.8687 31.4545)" class="st2" width="4.72" height="4.72"/>
			<rect x="13.58" y="13.37" class="st2" width="4.72" height="4.72"/>
		</g>
	</g>
</g>
<g id="Layer_20" class="st0">
	<g class="st1">
		<g>
			<path class="st2" d="M9.8,6.83v2.72H7.08V6.83H9.8 M10.8,5.83H6.08v4.72h4.72V5.83L10.8,5.83z"/>
		</g>
		<g>
			<path class="st2" d="M9.8,21.9v2.72H7.08V21.9H9.8 M10.8,20.9H6.08v4.72h4.72V20.9L10.8,20.9z"/>
		</g>
		<g>
			<path class="st2" d="M9.8,14.37v2.72H7.08v-2.72H9.8 M10.8,13.37H6.08v4.72h4.72V13.37L10.8,13.37z"/>
		</g>
		<line class="st4" x1="12.62" y1="8.19" x2="25.79" y2="8.19"/>
		<line class="st4" x1="12.62" y1="15.73" x2="25.79" y2="15.73"/>
		<line class="st4" x1="12.62" y1="23.26" x2="25.79" y2="23.26"/>
	</g>
</g>
<g id="Layer_21" class="st0">
	<g class="st1">
		<g>
			<path class="st2" d="M24.17,6.95l-5.95,7.21h-3.75L8.53,6.95H24.17 M26.29,5.95H6.41l7.6,9.21h4.69L26.29,5.95L26.29,5.95z"/>
		</g>
		<g>
			<path class="st2" d="M17.7,15.2l0.03,7.25l-2.73,1.63V15.2H17.7 M18.7,14.2h-4.69v11.64l4.73-2.82L18.7,14.2L18.7,14.2z"/>
		</g>
	</g>
</g>
<g id="Layer_22" class="st0">
	<g class="st1">
		<circle class="st7" cx="15.93" cy="16.41" r="14"/>
		<g>
			<polyline class="st4" points="21.93,16.78 21.93,10.47 15.62,10.47 			"/>
			<polyline class="st4" points="9.94,16.04 9.94,22.35 16.25,22.35 			"/>
			<line class="st4" x1="21.93" y1="10.47" x2="9.94" y2="22.35"/>
		</g>
	</g>
</g>
<g id="Layer_23" class="st0">
	<path class="st8" d="M14.37,10c3.15,0,5.7,2.55,5.7,5.7s-2.55,5.7-5.7,5.7c-1.7,0-3.23-0.75-4.27-1.93"/>
</g>
<g id="Layer_24" class="st0">
	<circle class="st9" cx="16" cy="16" r="14"/>
	<polyline class="st10" points="20.75,19.91 16,24.12 11.25,19.91 	"/>
	<path class="st11" d="M16,2c7.73,0,14,6.27,14,14s-6.27,14-14,14S2,23.73,2,16c0-2.34,0.57-4.54,1.58-6.47"/>
	<line class="st10" x1="16" y1="24.12" x2="16" y2="7.69"/>
</g>
<g id="Layer_25" class="st0">
	<g class="st1">
		<g>
			<rect x="8.51" y="10.81" class="st2" width="16.24" height="0.86"/>
			
				<rect x="12.35" y="18.09" transform="matrix(0.4864 -0.8737 0.8737 0.4864 -5.559 27.5888)" class="st2" width="16.67" height="0.86"/>
			
				<rect x="12.14" y="10.18" transform="matrix(0.8733 -0.4872 0.4872 0.8733 -7.4314 8.4709)" class="st2" width="0.86" height="16.68"/>
		</g>
		<g>
			<polygon class="st4" points="8.51,11.24 8.6,21.36 16.63,25.81 24.83,21.36 24.74,11.24 16.55,7.02 			"/>
			<polyline class="st4" points="16.63,25.81 16.54,15.69 24.74,11.24 			"/>
			<line class="st4" x1="8.51" y1="11.24" x2="16.54" y2="15.69"/>
		</g>
		<path class="st4" d="M16.46,14.35"/>
		<path class="st4" d="M8.51,22.6"/>
	</g>
</g>
<g id="Layer_26" class="st0">
	<g class="st1">
		<polyline class="st4" points="19.27,21.02 13.89,15.29 6.95,22.69 		"/>
		<polyline class="st4" points="25.28,22.46 19.99,16.83 17.77,19.19 		"/>
		<g>
			<path class="st2" d="M24.97,9.81v13H7.37v-13H24.97 M25.97,8.81H6.37v15h19.61V8.81L25.97,8.81z"/>
		</g>
		<ellipse class="st2" cx="22.26" cy="12.25" rx="0.92" ry="0.97"/>
	</g>
</g>
<g id="Layer_27" class="st0">
	<g class="st1">
		<circle class="st2" cx="21.32" cy="11" r="2.28"/>
		<circle class="st2" cx="13.04" cy="22.87" r="2.28"/>
		<circle class="st2" cx="23.36" cy="24.55" r="1.68"/>
		<circle class="st2" cx="24.36" cy="17.86" r="1.19"/>
		<circle class="st2" cx="7.9" cy="14.54" r="1.68"/>
		<circle class="st2" cx="12.79" cy="16.07" r="1.19"/>
		<circle class="st2" cx="14.32" cy="8.75" r="1.52"/>
	</g>
</g>
<g id="Layer_28" class="st0">
	<g class="st1">
		<polygon class="st4" points="16.63,25.79 12.37,21.06 7.4,21.06 7.4,12.53 12.37,12.53 16.63,7.79 		"/>
		<path class="st4" d="M19.67,21.1c1.22-1.04,2-2.59,2-4.32s-0.78-3.28-2-4.32"/>
		<path class="st4" d="M21.94,23.74c1.97-1.67,3.22-4.17,3.22-6.95s-1.25-5.28-3.22-6.95"/>
	</g>
</g>
<g id="Layer_29" class="st0">
	<g class="st1">
		<rect x="20.47" y="9.63" class="st4" width="4.58" height="4.62"/>
		
			<rect x="15.89" y="9.63" transform="matrix(-1 -4.449742e-11 4.449742e-11 -1 36.3591 23.881)" class="st4" width="4.58" height="4.62"/>
		
			<rect x="6.72" y="9.64" transform="matrix(-1 -4.529189e-11 4.529189e-11 -1 18.0143 23.9005)" class="st4" width="4.58" height="4.62"/>
		<rect x="11.31" y="9.63" class="st4" width="4.58" height="4.62"/>
		<rect x="20.47" y="14.25" class="st4" width="4.58" height="4.62"/>
		
			<rect x="15.89" y="14.25" transform="matrix(-1 4.529165e-11 -4.529165e-11 -1 36.3591 33.1288)" class="st4" width="4.58" height="4.62"/>
		
			<rect x="6.73" y="14.25" transform="matrix(-1 4.568911e-11 -4.568911e-11 -1 18.0454 33.1288)" class="st4" width="4.58" height="4.62"/>
		<rect x="11.31" y="14.25" class="st4" width="4.58" height="4.62"/>
		<rect x="20.47" y="18.88" class="st4" width="4.58" height="4.62"/>
		
			<rect x="15.89" y="18.88" transform="matrix(-1 -4.529189e-11 4.529189e-11 -1 36.3591 42.3766)" class="st4" width="4.58" height="4.62"/>
		
			<rect x="6.73" y="18.88" transform="matrix(-1 -4.489443e-11 4.489443e-11 -1 18.0454 42.3766)" class="st4" width="4.58" height="4.62"/>
		<rect x="11.31" y="18.88" class="st4" width="4.58" height="4.62"/>
		<rect x="8.09" y="11.02" class="st2" width="1.83" height="1.85"/>
		
			<rect x="12.67" y="11.02" transform="matrix(-1 -4.462309e-11 4.462309e-11 -1 27.1712 23.9005)" class="st2" width="1.83" height="1.85"/>
		
			<rect x="21.86" y="11.02" transform="matrix(-1 -4.462309e-11 4.462309e-11 -1 45.5471 23.9005)" class="st2" width="1.83" height="1.85"/>
		<rect x="17.28" y="11.02" class="st2" width="1.83" height="1.85"/>
		<rect x="8.09" y="15.65" class="st2" width="1.83" height="1.85"/>
		<rect x="8.09" y="20.25" class="st2" width="1.83" height="1.85"/>
	</g>
</g>
<g id="Layer_30">
	<g>
		<g>
			<path class="st2" d="M21.85,8.29l3.83,4.62l-9.35,11.77L6.98,12.91l3.83-4.62H21.85 M22.32,7.29H10.34l-4.65,5.6l10.64,13.4
				l10.64-13.4L22.32,7.29L22.32,7.29z"/>
		</g>
		<line class="st4" x1="6.48" y1="12.85" x2="25.8" y2="12.85"/>
		<polyline class="st4" points="21.88,8.12 19.33,12.27 16.33,7.85 		"/>
		<polyline class="st4" points="10.78,8.12 13.33,12.27 16.33,7.85 		"/>
		<line class="st4" x1="16.33" y1="24.88" x2="19.4" y2="12.74"/>
		<line class="st4" x1="16.33" y1="24.88" x2="13.26" y2="12.74"/>
	</g>
</g>
</svg>
